REM DIRINDEX 1\2,1\3,1\4,1\5
REM DIRNAME folder01,folder02,folder03,folder04,folder05
TITLE ""
FILE "1Q_t_1159-1168.mp3" MP3
  TRACK 01 AUDIO
    TITLE "3:cjc004_4381"
    INDEX 01 00:00:00
  TRACK 02 AUDIO
    TITLE "0:"
    INDEX 01 00:01:09
  TRACK 03 AUDIO
    TITLE "4:cjc004_4382"
    INDEX 01 00:01:42
  TRACK 04 AUDIO
    TITLE "0:"
    INDEX 01 00:02:36
  TRACK 05 AUDIO
    TITLE "5:cjc004_4383"
    INDEX 01 00:02:63
  TRACK 06 AUDIO
    TITLE "0:"
    INDEX 01 00:07:68
  TRACK 07 AUDIO
    TITLE "3:cjc004_4384"
    INDEX 01 00:08:50
  TRACK 08 AUDIO
    TITLE "0:"
    INDEX 01 00:10:18
  TRACK 09 AUDIO
    TITLE "4:cjc004_4385"
    INDEX 01 00:10:47
  TRACK 10 AUDIO
    TITLE "0:"
    INDEX 01 00:12:30
  TRACK 11 AUDIO
    TITLE "5:cjc004_4386"
    INDEX 01 00:12:56
  TRACK 12 AUDIO
    TITLE "0:"
    INDEX 01 00:17:45
  TRACK 13 AUDIO
    TITLE "3:cjc004_4387"
    INDEX 01 00:18:23
  TRACK 14 AUDIO
    TITLE "0:"
    INDEX 01 00:19:54
  TRACK 15 AUDIO
    TITLE "4:cjc004_4388"
    INDEX 01 00:20:10
  TRACK 16 AUDIO
    TITLE "0:"
    INDEX 01 00:21:25
  TRACK 17 AUDIO
    TITLE "5:cjc004_4389"
    INDEX 01 00:21:49
  TRACK 18 AUDIO
    TITLE "0:"
    INDEX 01 00:27:12
  TRACK 19 AUDIO
    TITLE "3:cjc004_4390"
    INDEX 01 00:27:71
  TRACK 20 AUDIO
    TITLE "0:"
    INDEX 01 00:29:03
  TRACK 21 AUDIO
    TITLE "4:cjc004_4391"
    INDEX 01 00:29:34
  TRACK 22 AUDIO
    TITLE "0:"
    INDEX 01 00:30:22
  TRACK 23 AUDIO
    TITLE "5:cjc004_4392"
    INDEX 01 00:30:50
  TRACK 24 AUDIO
    TITLE "0:"
    INDEX 01 00:36:23
  TRACK 25 AUDIO
    TITLE "3:cjc004_4393"
    INDEX 01 00:37:01
  TRACK 26 AUDIO
    TITLE "0:"
    INDEX 01 00:38:02
  TRACK 27 AUDIO
    TITLE "4:cjc004_4394"
    INDEX 01 00:38:31
  TRACK 28 AUDIO
    TITLE "0:"
    INDEX 01 00:39:54
  TRACK 29 AUDIO
    TITLE "5:cjc004_4395"
    INDEX 01 00:40:01
  TRACK 30 AUDIO
    TITLE "0:"
    INDEX 01 00:44:73
  TRACK 31 AUDIO
    TITLE "3:cjc004_4396"
    INDEX 01 00:45:51
  TRACK 32 AUDIO
    TITLE "0:"
    INDEX 01 00:46:60
  TRACK 33 AUDIO
    TITLE "4:cjc004_4397"
    INDEX 01 00:47:15
  TRACK 34 AUDIO
    TITLE "0:"
    INDEX 01 00:48:18
  TRACK 35 AUDIO
    TITLE "5:cjc004_4398"
    INDEX 01 00:48:46
  TRACK 36 AUDIO
    TITLE "0:"
    INDEX 01 00:52:69
  TRACK 37 AUDIO
    TITLE "3:cjc004_4399"
    INDEX 01 00:53:43
  TRACK 38 AUDIO
    TITLE "0:"
    INDEX 01 00:54:60
  TRACK 39 AUDIO
    TITLE "4:cjc004_4400"
    INDEX 01 00:55:16
  TRACK 40 AUDIO
    TITLE "0:"
    INDEX 01 00:56:31
  TRACK 41 AUDIO
    TITLE "5:cjc004_4401"
    INDEX 01 00:56:59
  TRACK 42 AUDIO
    TITLE "0:"
    INDEX 01 01:02:14
  TRACK 43 AUDIO
    TITLE "3:cjc004_4402"
    INDEX 01 01:02:65
  TRACK 44 AUDIO
    TITLE "0:"
    INDEX 01 01:04:15
  TRACK 45 AUDIO
    TITLE "4:cjc004_4403"
    INDEX 01 01:04:41
  TRACK 46 AUDIO
    TITLE "0:"
    INDEX 01 01:06:14
  TRACK 47 AUDIO
    TITLE "5:cjc004_4404"
    INDEX 01 01:06:42
  TRACK 48 AUDIO
    TITLE "0:"
    INDEX 01 01:11:33
  TRACK 49 AUDIO
    TITLE "3:cjc004_4405"
    INDEX 01 01:12:07
  TRACK 50 AUDIO
    TITLE "0:"
    INDEX 01 01:13:44
  TRACK 51 AUDIO
    TITLE "4:cjc004_4406"
    INDEX 01 01:13:73
  TRACK 52 AUDIO
    TITLE "0:"
    INDEX 01 01:15:15
  TRACK 53 AUDIO
    TITLE "5:cjc004_4407"
    INDEX 01 01:15:40
  TRACK 54 AUDIO
    TITLE "0:"
    INDEX 01 01:21:63
  TRACK 55 AUDIO
    TITLE "3:cjc004_4408"
    INDEX 01 01:22:42
  TRACK 56 AUDIO
    TITLE "0:"
    INDEX 01 01:23:56
  TRACK 57 AUDIO
    TITLE "4:cjc004_4409"
    INDEX 01 01:24:10
  TRACK 58 AUDIO
    TITLE "0:"
    INDEX 01 01:25:27
  TRACK 59 AUDIO
    TITLE "5:cjc004_4410"
    INDEX 01 01:25:51
  TRACK 60 AUDIO
    TITLE "0:"
    INDEX 01 01:30:56
